<!DOCTYPE svg PUBLIC "-//W3C//DTD SVG 1.1//EN" "http://www.w3.org/Graphics/SVG/1.1/DTD/svg11.dtd">
<!-- Uploaded to: SVG Repo, www.svgrepo.com, Transformed by: SVG Repo Mixer Tools -->
<svg height="800px" width="800px" version="1.1" id="_x32_" xmlns="http://www.w3.org/2000/svg" xmlns:xlink="http://www.w3.org/1999/xlink" viewBox="0 0 512 512" xml:space="preserve" fill="#000000">
<g id="SVGRepo_bgCarrier" stroke-width="0"/>
<g id="SVGRepo_tracerCarrier" stroke-linecap="round" stroke-linejoin="round"/>
<g id="SVGRepo_iconCarrier"> <style type="text/css"> .st0{fill:#ff3131;} </style> <g> <path class="st0" d="M400.42,239.025c3.623,4.43,6.856,9.011,9.61,13.742c-19.939,49.982-90.592,86.925-174.695,86.925 c-84.111,0-154.757-36.943-174.696-86.925c26.428-45.438,94.664-77.809,174.696-77.809c34.922,0,67.6,6.167,95.539,16.9 c11.826-24.242,29.331-57.668,48.918-87.074c-39.877-19.924-90.008-31.802-144.458-31.802C105.359,72.982,0,140.59,0,223.989 c0,76.484,58.828,233.374,235.335,233.374c176.252,0,235.162-156.44,235.326-233.052c0-0.105,0.008-0.209,0.008-0.322 c0-20.126-6.16-39.331-17.296-56.889C433.329,189.148,413.645,215.958,400.42,239.025z"/> <path class="st0" d="M439.07,70.542c-46.748,37.4-101.759,163.26-101.759,163.26c-2.417,7.23,11.668,15.291,22.004,15.867 c7.844,0.434,10.464-2.62,10.464-2.62c19.61-43.148,77.719-119.924,120.283-141.202C542.363,79.696,491.372,28.703,439.07,70.542z"/> </g> </g>
</svg>