<!DOCTYPE svg PUBLIC "-//W3C//DTD SVG 1.1//EN" "http://www.w3.org/Graphics/SVG/1.1/DTD/svg11.dtd">
<!-- Uploaded to: SVG Repo, www.svgrepo.com, Transformed by: SVG Repo Mixer Tools -->
<svg width="800px" height="800px" viewBox="0 -7.43 31.981 31.981" xmlns="http://www.w3.org/2000/svg" fill="#000000">
<g id="SVGRepo_bgCarrier" stroke-width="0"/>
<g id="SVGRepo_tracerCarrier" stroke-linecap="round" stroke-linejoin="round"/>
<g id="SVGRepo_iconCarrier"> <g id="croissant" transform="translate(-235.987 -89.434)"> <g id="Group_469" data-name="Group 469"> <g id="Group_460" data-name="Group 460"> <g id="Group_459" data-name="Group 459"> <path id="Path_293" data-name="Path 293" d="M251.906,106.053a2.593,2.593,0,0,1-2.117-1.23l-4.687-13.2a1.461,1.461,0,0,1,1.443-1.691H257.28a1.46,1.46,0,0,1,1.442,1.691l-4.686,13.2A2.436,2.436,0,0,1,251.906,106.053Z" fill="#ff3131"/> </g> </g> <g id="Group_462" data-name="Group 462"> <g id="Group_461" data-name="Group 461"> <path id="Path_294" data-name="Path 294" d="M247.155,104.142h2.392l-4.262-12-3.734,1.289c-1.117.508-1.916,1.108-1.55,2.172l4.1,7.282A3.174,3.174,0,0,0,247.155,104.142Z" fill="#ff3131"/> </g> </g> <g id="Group_464" data-name="Group 464"> <g id="Group_463" data-name="Group 463"> <path id="Path_295" data-name="Path 295" d="M240.068,95.731l3.919,6.949s-5.658,3.52-7.205,1.33S240.068,95.731,240.068,95.731Z" fill="#ff3131"/> </g> </g> <g id="Group_466" data-name="Group 466"> <g id="Group_465" data-name="Group 465"> <path id="Path_296" data-name="Path 296" d="M256.735,103.963h-2.392l4.262-12,3.734,1.288c1.117.508,1.916,1.109,1.55,2.173l-4.1,7.282A3.174,3.174,0,0,1,256.735,103.963Z" fill="#ff3131"/> </g> </g> <g id="Group_468" data-name="Group 468"> <g id="Group_467" data-name="Group 467"> <path id="Path_297" data-name="Path 297" d="M263.886,95.425l-3.918,6.949s5.658,3.52,7.2,1.329S263.886,95.425,263.886,95.425Z" fill="#ff3131"/> </g> </g> </g> <g id="light"> <g id="Group_471" data-name="Group 471" opacity="0.35"> <g id="Group_470" data-name="Group 470"> <path id="Path_298" data-name="Path 298" d="M241.378,97.275c-.367-1.065.556-1.838,1.673-2.346l2.872-.991-.638-1.8-3.734,1.289c-1.117.508-1.916,1.108-1.55,2.172Z" fill="#ffffff"/> </g> </g> <g id="Group_473" data-name="Group 473" opacity="0.35"> <g id="Group_472" data-name="Group 472"> <path id="Path_299" data-name="Path 299" d="M241.193,97.726l-1.125-1.995s-4.832,6.088-3.286,8.279a1.721,1.721,0,0,0,1.225.687C237.766,102.6,240.233,99.023,241.193,97.726Z" fill="#ffffff"/> </g> </g> </g> <g id="light-2" data-name="light" opacity="0.35"> <g id="Group_474" data-name="Group 474"> <path id="Path_300" data-name="Path 300" d="M245.923,93.938l.174-.882c-.142-.887,1.049-1.621,1.948-1.621h10.687a1.456,1.456,0,0,0-1.452-1.5H246.545a1.461,1.461,0,0,0-1.443,1.691Z" fill="#ffffff"/> </g> </g> <g id="Group_485" data-name="Group 485"> <g id="Group_476" data-name="Group 476"> <g id="Group_475" data-name="Group 475"> <path id="Path_301" data-name="Path 301" d="M251.906,106.553a3.087,3.087,0,0,1-2.546-1.472l-4.728-13.287a1.981,1.981,0,0,1,.422-1.672,1.959,1.959,0,0,1,1.491-.688H257.28a1.963,1.963,0,0,1,1.937,2.271l-4.71,13.286A2.94,2.94,0,0,1,251.906,106.553Zm-5.361-16.119a.961.961,0,0,0-.948,1.114l4.663,13.108a2.119,2.119,0,0,0,1.646.9,1.947,1.947,0,0,0,1.677-.941l4.669-13.153a.989.989,0,0,0-.241-.687.959.959,0,0,0-.731-.338Z" fill="#ffffff"/> </g> </g> <g id="Group_478" data-name="Group 478"> <g id="Group_477" data-name="Group 477"> <path id="Path_302" data-name="Path 302" d="M246.721,104.646a3.451,3.451,0,0,1-3.018-1.463l-4.138-7.336c-.621-1.781,1.122-2.575,1.779-2.874l3.778-1.305a.5.5,0,0,1,.634.305l4.261,12a.5.5,0,0,1-.47.668h-2.392l-.2,0C246.882,104.644,246.8,104.646,246.721,104.646Zm-1.742-11.871L241.714,93.9c-1.272.582-1.423,1.006-1.24,1.538l4.064,7.2a2.516,2.516,0,0,0,2.4,1.006l.214,0h1.684Z" fill="#ffffff"/> </g> </g> <g id="Group_480" data-name="Group 480"> <g id="Group_479" data-name="Group 479"> <path id="Path_303" data-name="Path 303" d="M238.451,105.226a2.384,2.384,0,0,1-2.077-.928c-1.713-2.427,2.784-8.224,3.3-8.878a.5.5,0,0,1,.827.066l3.918,6.948a.5.5,0,0,1-.172.67C243.8,103.386,240.752,105.226,238.451,105.226Zm1.554-8.59c-1.708,2.305-3.7,5.828-2.815,7.085.952,1.347,4.479-.282,6.12-1.221Z" fill="#ffffff"/> </g> </g> <g id="Group_482" data-name="Group 482"> <g id="Group_481" data-name="Group 481"> <path id="Path_304" data-name="Path 304" d="M257.164,104.468c-.081,0-.158,0-.231,0l-2.59,0a.5.5,0,0,1-.471-.667l4.263-12a.5.5,0,0,1,.633-.305l3.734,1.288c.7.316,2.444,1.108,1.859,2.808l-4.138,7.364A3.492,3.492,0,0,1,257.164,104.468Zm-2.113-1.005,1.9,0a2.542,2.542,0,0,0,2.44-1.06l4.065-7.227c.146-.45-.006-.875-1.321-1.473L258.911,92.6Z" fill="#ffffff"/> </g> </g> <g id="Group_484" data-name="Group 484"> <g id="Group_483" data-name="Group 483"> <path id="Path_305" data-name="Path 305" d="M265.5,104.92c-2.3,0-5.347-1.84-5.8-2.122a.5.5,0,0,1-.172-.67l3.919-6.949a.5.5,0,0,1,.4-.252.51.51,0,0,1,.43.187c.519.653,5.016,6.452,3.3,8.878A2.384,2.384,0,0,1,265.5,104.92Zm-4.86-2.726c1.643.938,5.171,2.564,6.121,1.221.888-1.259-1.106-4.781-2.814-7.085Z" fill="#ffffff"/> </g> </g> </g> </g> </g>
</svg>