<!DOCTYPE svg PUBLIC "-//W3C//DTD SVG 1.1//EN" "http://www.w3.org/Graphics/SVG/1.1/DTD/svg11.dtd">
<!-- Uploaded to: SVG Repo, www.svgrepo.com, Transformed by: SVG Repo Mixer Tools -->
<svg width="800px" height="800px" viewBox="0 0 400 400" fill="none" xmlns="http://www.w3.org/2000/svg">
<g id="SVGRepo_bgCarrier" stroke-width="0"/>
<g id="SVGRepo_tracerCarrier" stroke-linecap="round" stroke-linejoin="round"/>
<g id="SVGRepo_iconCarrier"> <path d="M152.05 274.635C150.052 255.507 149.769 235.746 149.769 216.153C149.769 163.428 128.74 123.874 188.51 123.874C194.035 123.874 221.023 119.923 224.595 123.495C228.277 127.181 218.974 168.807 218.518 174.76C212.464 253.477 243.685 281.879 156.608 277.294" stroke="#ff3131" stroke-opacity="0.9" stroke-width="16" stroke-linecap="round" stroke-linejoin="round"/> <path d="M76.7778 231.871C73.9806 280.061 115.429 270.256 150.354 272.203" stroke="#ff3131" stroke-opacity="0.9" stroke-width="16" stroke-linecap="round" stroke-linejoin="round"/> <path d="M218.502 266.491C273.688 267.718 277.862 262.598 283.868 204.056" stroke="#ff3131" stroke-opacity="0.9" stroke-width="16" stroke-linecap="round" stroke-linejoin="round"/> <path d="M142.01 191.859C0.241288 255.146 44.4094 128.954 158.699 128.954" stroke="#ff3131" stroke-opacity="0.9" stroke-width="16" stroke-linecap="round" stroke-linejoin="round"/> <path d="M229.507 140.08C257.084 142.326 288.307 162.96 314.095 178.775C328.407 187.552 347.844 191.196 347.844 198.09C347.844 217.405 332.353 199.825 325.013 202.262C315.551 205.404 327.106 245.893 317.786 244.345C297.241 240.933 308.375 206.862 300.664 203.018C280.389 192.916 249.774 191.841 226.847 188.234" stroke="#ff3131" stroke-opacity="0.9" stroke-width="16" stroke-linecap="round" stroke-linejoin="round"/> <path opacity="0.503384" d="M78.0342 165.114C78.664 173.281 84.0671 175.989 87.7696 179.021" stroke="#ff3131" stroke-opacity="0.9" stroke-width="14" stroke-linecap="round" stroke-linejoin="round"/> <path opacity="0.503384" d="M106.778 144.252C107.68 147.557 109.271 150.805 110.483 153.988" stroke="#ff3131" stroke-opacity="0.9" stroke-width="14" stroke-linecap="round" stroke-linejoin="round"/> <path opacity="0.503384" d="M238.201 147.034C237.806 151.806 236.203 156.342 234.963 160.941" stroke="#ff3131" stroke-opacity="0.9" stroke-width="14" stroke-linecap="round" stroke-linejoin="round"/> <path opacity="0.503384" d="M268.803 165.114C266.984 167.055 266.566 169.91 265.56 172.068" stroke="#ff3131" stroke-opacity="0.9" stroke-width="14" stroke-linecap="round" stroke-linejoin="round"/> <path opacity="0.503384" d="M214.329 127.563C194.619 134.824 175.933 144.852 155.917 151.206" stroke="#ff3131" stroke-opacity="0.9" stroke-width="4" stroke-linecap="round" stroke-linejoin="round"/> <path opacity="0.503384" d="M221.284 138.689C201.096 146.893 181.663 156.879 161.48 165.114" stroke="#ff3131" stroke-opacity="0.9" stroke-width="4" stroke-linecap="round" stroke-linejoin="round"/> <path opacity="0.503384" d="M218.501 156.769C202.372 167.856 184.075 174.079 167.043 183.194" stroke="#ff3131" stroke-opacity="0.9" stroke-width="4" stroke-linecap="round" stroke-linejoin="round"/> <path opacity="0.503384" d="M214.33 179.021C206.305 186.295 174.033 196.769 172.606 197.102" stroke="#ff3131" stroke-opacity="0.9" stroke-width="4" stroke-linecap="round" stroke-linejoin="round"/> <path opacity="0.503384" d="M215.72 202.665C203.458 208.182 190.778 213.037 178.169 217.963" stroke="#ff3131" stroke-opacity="0.9" stroke-width="4" stroke-linecap="round" stroke-linejoin="round"/> <path opacity="0.503384" d="M211.548 226.308C203.782 232.557 195.124 237.19 186.514 241.606" stroke="#ff3131" stroke-opacity="0.9" stroke-width="4" stroke-linecap="round" stroke-linejoin="round"/> <path opacity="0.503384" d="M207.375 252.732C200.473 255.613 194.312 260.098 187.904 263.859" stroke="#ff3131" stroke-opacity="0.9" stroke-width="4" stroke-linecap="round" stroke-linejoin="round"/> </g>
</svg>