<!DOCTYPE svg PUBLIC "-//W3C//DTD SVG 1.1//EN" "http://www.w3.org/Graphics/SVG/1.1/DTD/svg11.dtd">
<!-- Uploaded to: SVG Repo, www.svgrepo.com, Transformed by: SVG Repo Mixer Tools -->
<svg height="800px" width="800px" version="1.1" id="_x32_" xmlns="http://www.w3.org/2000/svg" xmlns:xlink="http://www.w3.org/1999/xlink" viewBox="0 0 512 512" xml:space="preserve" fill="#000000">
<g id="SVGRepo_bgCarrier" stroke-width="0"/>
<g id="SVGRepo_tracerCarrier" stroke-linecap="round" stroke-linejoin="round"/>
<g id="SVGRepo_iconCarrier"> <style type="text/css"> .st0{fill:#ff3131;} </style> <g> <path class="st0" d="M432.315,177.542v152.435c0.058,22.202-6.934,48.656-21.59,68.446c-7.32,9.932-16.448,18.274-27.644,24.203 c-11.214,5.913-24.572,9.505-40.936,9.514c-5.444,0.008-11.23-0.402-17.36-1.274c-15.543-2.211-25.249-7.151-30.726-12.226 c-5.452-5.15-7.319-10.268-7.404-15.878c-0.025-6.448,3.074-13.844,9.354-19.898c6.264-6.047,15.468-10.628,27.168-11.465 c3.994-0.285,7.73-0.427,11.231-0.427c29.394,0.067,42.384,8.927,47.366,13.835c5.017,5.024,13.157,5.033,18.19,0.016 c5.024-5.025,5.024-13.165,0-18.19c-10.335-10.426-30.911-21.439-65.556-21.388c-4.154,0.008-8.5,0.167-13.065,0.485 c-17.512,1.239-32.544,8.308-43.213,18.626c-10.644,10.301-17.168,23.952-17.202,38.406c-0.084,12.454,5.251,25.266,15.686,34.788 c10.419,9.581,25.308,16.03,44.544,18.794c7.261,1.022,14.254,1.524,20.987,1.532c20.2,0.008,37.996-4.581,52.962-12.512 c22.494-11.892,38.288-30.936,48.322-51.63c10.049-20.753,14.588-43.28,14.614-63.756V177.542c0-7.102-5.762-12.864-12.864-12.864 C438.076,164.678,432.315,170.44,432.315,177.542z"/> <path class="st0" d="M294.543,232.856c6.876,1.775,13.893-2.37,15.66-9.245l44.544-172.903c1.776-6.876-2.362-13.893-9.245-15.669 c-6.875-1.775-13.894,2.37-15.661,9.245l-44.544,172.904C283.523,224.072,287.659,231.09,294.543,232.856z"/> <path class="st0" d="M339.934,242.99c6.876,1.776,13.893-2.37,15.66-9.246l40.926-158.841c1.776-6.884-2.362-13.894-9.245-15.661 c-6.875-1.775-13.894,2.362-15.661,9.246l-40.926,158.833C328.913,234.205,333.05,241.223,339.934,242.99z"/> <path class="st0" d="M387.016,257.369c6.876,1.775,13.894-2.362,15.661-9.246l38.984-151.288c1.775-6.876-2.362-13.894-9.246-15.67 c-6.876-1.775-13.893,2.37-15.66,9.246l-38.984,151.296C375.995,248.584,380.132,255.594,387.016,257.369z"/> <path class="st0" d="M238.065,187.676c9.765,3.668,22.562,7.478,36.028,11.112l9.045-35.081l-22.838-8.994 c-8.576-3.383-10.937-9.405-8.274-16.163c2.428-6.172,7.261-11.28,16.079-8.182l21.448,8.45l7.679-29.823l-17.93-7.059 c-7.856-2.906-8.618-10.778-6.189-16.951c2.664-6.75,8.5-9.546,17.067-6.18l13.459,5.302l9.514-36.916 c-6.013-2.94-11.717-5.586-16.75-7.662c-34.294-14.128-69.811-3.275-88.519,6.214c-10.502,5.326-21.28,11.398-33.206,6.699 L47.844,0v54.058l109.983,41.179c11.926,4.698,15.67,16.48,19.714,27.535C184.761,142.477,203.344,174.636,238.065,187.676z"/> <path class="st0" d="M456.258,420.75c-4.271-5.075-11.85-5.728-16.917-1.458c-5.075,4.272-5.729,11.842-1.457,16.917 c1.641,2.026,2.211,3.685,2.26,6.114c0.026,2.914-1.264,7.261-5.024,12.294c-5.56,7.537-16.489,16.096-32.61,22.511 c-16.113,6.448-37.342,10.853-63.329,10.853c-42.258-0.008-69.937-8.911-87.958-20.367c-17.998-11.482-26.866-25.61-31.162-38.021 c-2.152-6.264-8.986-9.614-15.258-7.453c-6.264,2.152-9.606,8.977-7.454,15.258c5.762,16.934,18.232,36.061,41.003,50.482 C261.095,502.335,293.622,512,339.18,512c38.264-0.017,68.546-8.576,89.944-21.213c10.686-6.34,19.186-13.692,25.258-21.825 c6.029-8.098,9.748-17.159,9.774-26.639C464.205,434.602,461.425,426.813,456.258,420.75z"/> </g> </g>
</svg>